<?xml version="1.0" encoding="UTF-8" standalone="no"?>
<svg
   xmlns:dc="http://purl.org/dc/elements/1.1/"
   xmlns:cc="http://creativecommons.org/ns#"
   xmlns:rdf="http://www.w3.org/1999/02/22-rdf-syntax-ns#"
   xmlns:svg="http://www.w3.org/2000/svg"
   xmlns="http://www.w3.org/2000/svg"
   xmlns:sodipodi="http://sodipodi.sourceforge.net/DTD/sodipodi-0.dtd"
   xmlns:inkscape="http://www.inkscape.org/namespaces/inkscape"
   inkscape:version="1.0 (4035a4fb49, 2020-05-01)"
   sodipodi:docname="icone-footer.svg"
   id="svg30"
   xml:space="preserve"
   enable-background="new 0 0 1000 1000"
   viewBox="0 0 1000 1000"
   y="0px"
   x="0px"
   version="1.1"><defs
   id="defs34" /><sodipodi:namedview
   inkscape:current-layer="svg30"
   inkscape:window-maximized="1"
   inkscape:window-y="-8"
   inkscape:window-x="-8"
   inkscape:cy="547.05882"
   inkscape:cx="500"
   inkscape:zoom="0.85"
   showgrid="false"
   id="namedview32"
   inkscape:window-height="1017"
   inkscape:window-width="1920"
   inkscape:pageshadow="2"
   inkscape:pageopacity="0"
   guidetolerance="10"
   gridtolerance="10"
   objecttolerance="10"
   borderopacity="1"
   bordercolor="#666666"
   pagecolor="#ffffff" />
<metadata
   id="metadata2"> Svg Vector Icons : http://www.onlinewebfonts.com/icon <rdf:RDF><cc:Work
     rdf:about=""><dc:format>image/svg+xml</dc:format><dc:type
       rdf:resource="http://purl.org/dc/dcmitype/StillImage" /><dc:title></dc:title></cc:Work></rdf:RDF></metadata>
<g
   style="fill:#ffffff"
   id="g28"><g
     style="fill:#ffffff"
     id="g26"
     transform="translate(0.000000,478.000000) scale(0.100000,-0.100000)"><path
       style="fill:#ffffff"
       id="path4"
       d="M2377.7,4325.7c-271.8-99.5-461.3-371.3-434.5-627.8c21.1-204.8,170.4-413.4,367.5-509.1c135.9-65.1,342.6-65.1,478.5,0c122.5,59.3,256.5,193.3,315.8,315.8c36.4,74.6,45.9,126.3,45.9,239.3c0,174.2-49.8,290.9-179.9,421.1C2808.4,4329.5,2567.2,4394.6,2377.7,4325.7z M2737.6,4000.3c84.2-63.2,122.5-155,112.9-281.4c-11.5-191.4-126.3-289-325.4-275.6c-191.4,11.5-289,126.3-275.6,325.4c7.7,126.3,49.8,197.1,149.3,248.8C2484.9,4063.5,2662.9,4053.9,2737.6,4000.3z" /><path
       style="fill:#ffffff"
       id="path6"
       d="M1018.7,3590.7v-153.1h153.1H1325v153.1v153.1h-153.1h-153.1V3590.7z" /><path
       style="fill:#ffffff"
       id="path8"
       d="M1152.7,3100.7c-271.8-99.5-461.3-371.3-434.5-627.8c21.1-204.8,170.4-413.4,367.5-509.1c135.9-65.1,342.6-65.1,478.5,0c122.5,59.3,256.5,193.3,315.8,315.8c65.1,135.9,65.1,342.6,0,478.5c-59.3,122.5-195.2,256.5-315.8,313.9C1439.8,3131.3,1267.6,3142.8,1152.7,3100.7z M1512.6,2775.3c84.2-63.2,122.5-155,112.9-281.4c-11.5-191.4-126.3-289-325.4-275.6c-191.4,11.5-289,126.3-275.6,325.4c7.7,126.3,49.8,197.1,149.3,248.8C1259.9,2838.5,1437.9,2828.9,1512.6,2775.3z" /><path
       style="fill:#ffffff"
       id="path10"
       d="M3468.7,2978.2v-153.1h153.1H3775v153.1v153.1h-153.1h-153.1V2978.2z" /><path
       style="fill:#ffffff"
       id="path12"
       d="M4387.5,2978.2v-153.1h153.1h153.1V1316.8V-191.5l-153.1-218.2l-153.1-218.2V26.7v654.6H2243.7H100V432.5V183.7l306.2-535.9l306.2-535.9v-1477.7c0-1604,1.9-1628.9,105.3-1835.6c28.7-57.4,90-153.1,137.8-212.5l84.2-111H570.9H100v-134v-134h4900h4900v134v134H8673.1H7446.2l134,132.1c285.2,277.5,447.9,620.1,474.7,997.2l9.6,143.6L6992.5-1720.8L5918.7-191.5v1508.3v1508.3h153.1H6225v153.1v153.1h-918.8h-918.8V2978.2z M5612.5,2518.8v-306.2h-153.1h-153.1v-153.1v-153.1h153.1h153.1v-153.1v-153.1h-153.1h-153.1v-153.1v-153.1h153.1h153.1v-153.1V987.6h-153.1h-153.1V834.4V681.3h153.1h153.1V528.2V375.1h-153.1h-153.1V221.9V68.8h153.1h153.1v-176.1v-178l995.3-1420.3c547.4-782.8,995.3-1426,995.3-1431.7c0-5.8-654.6-9.6-1454.7-9.6H4693.7v-153.1V-3453l1527.4-3.8l1529.3-5.7l-24.9-124.4c-67-333.1-313.9-650.8-622.1-802c-275.6-135.9-268-135.9-1736.1-135.9H4060.2l86.1,111c105.3,132.1,191.4,319.7,220.1,472.8c13.4,74.7,21.1,564.6,21.1,1447v1336l306.3,436.4L5000-285.3v1556.1v1554.2h306.3h306.3V2518.8z M4081.2-344.6v-719.7l-191.4-275.6l-193.3-275.6H2358.6H1018.7v153.1v153.1H1325h306.3v153.1v153.1H1325h-306.3v95.7c0,90-23,135.9-306.2,631.6C502,91.8,406.2,277.5,406.2,317.7v57.4h1837.5h1837.5V-344.6z M4077.4-3012.8l-5.7-947.5l-59.3-126.3c-74.6-155.1-170.4-264.2-285.2-325.4l-86.1-45.9l-149.3,76.6c-294.8,151.2-539.8,470.8-604.8,794.3l-24.9,124.4l457.5,5.7l455.5,3.8v153.1v153.1h-382.8c-210.5,0-382.8,3.8-382.8,9.6c0,5.7,239.3,352.2,532.1,769.4l530.2,758l5.7-227.8C4079.3-1962,4079.3-2492.2,4077.4-3012.8z M3468.7-1931.4c0-5.8-206.7-304.3-461.3-666.1l-459.4-654.6l7.7-135.9c26.8-384.8,191.4-729.3,480.4-1008.7l134-130.1l-794.3,5.7l-794.3,5.8l-145.5,72.7c-250.7,122.5-415.3,371.3-417.3,631.6v51.7H1325h306.3v153.1v153.1H1325h-306.3v153.1v153.1H1325h306.3v153.1v153.1H1325h-306.3v153.1v153.1H1325h306.3v153.1v153.1H1325h-306.3v153.1v153.1h1225C2917.5-1921.8,3468.7-1925.6,3468.7-1931.4z" /><path
       style="fill:#ffffff"
       id="path14"
       d="M6864.3,2800.2c-141.7-53.6-264.2-178-310.1-317.7c-17.2-45.9-23-390.5-23-1192.5V162.6l47.9-45.9c84.2-86.1,120.6-70.8,602.9,254.6l449.8,300.5l957,9.6C9655,692.8,9611,687.1,9752.6,828.7c139.7,139.7,137.8,124.4,137.8,924.5c0,800.1,1.9,784.8-137.8,924.5c-145.5,145.5-53.6,137.8-1517.9,141.6C7264.3,2821.2,6908.3,2817.4,6864.3,2800.2z M9555.5,2480.5c36.4-36.4,38.3-63.2,38.3-727.3c0-664.2-1.9-691-38.3-727.3s-63.2-38.3-1020.2-38.3h-980l-359.8-239.3l-357.9-239.3v966.6c0,941.7,1.9,968.5,38.3,1004.9c38.3,38.3,63.2,38.3,1339.8,38.3S9517.2,2518.8,9555.5,2480.5z" /><path
       style="fill:#ffffff"
       id="path16"
       d="M7450,1753.2v-153.1h153.1h153.1v153.1v153.1h-153.1H7450V1753.2z" /><path
       style="fill:#ffffff"
       id="path18"
       d="M8062.5,1753.2v-153.1h153.1h153.1v153.1v153.1h-153.1h-153.1V1753.2z" /><path
       style="fill:#ffffff"
       id="path20"
       d="M8675,1753.2v-153.1h153.1h153.1v153.1v153.1h-153.1H8675V1753.2z" /><path
       style="fill:#ffffff"
       id="path22"
       d="M2848.6,2499.7c-220.1-55.5-430.7-233.5-534-455.5c-53.6-112.9-61.3-147.4-61.3-290.9s7.7-178,61.3-290.9c84.2-179.9,208.6-306.3,386.6-394.3c132.1-65.1,157-70.8,308.2-70.8s176.1,5.7,308.2,70.8c178,88,302.4,214.4,386.6,394.3c53.6,112.9,61.3,147.4,61.3,290.9s-7.7,178-61.3,290.9c-126.3,268-377.1,447.9-646.9,465.1C2982.6,2513.1,2890.7,2509.3,2848.6,2499.7z M3183.6,2183.9c302.4-107.2,384.7-522.5,151.2-756.1c-178-178-474.7-179.9-654.6-5.7c-172.3,168.4-172.3,493.8,0,662.3C2804.6,2204.9,3007.5,2245.1,3183.6,2183.9z" /><path
       style="fill:#ffffff"
       id="path24"
       d="M1631.2,1446.9v-153.1h153.1h153.1v153.1v153.1h-153.1h-153.1V1446.9z" /></g></g>
</svg>
